#define arch_width 12
#define arch_height 12
static char arch_bits[] = {
  0x30, 0x00, 0x20, 0x00, 0x30, 0x00, 0xF8, 0x00, 0xF8, 0x00, 0xFC, 0x00, 
  0xDC, 0x01, 0xCE, 0x01, 0x86, 0x01, 0xDF, 0x03, 0x8F, 0x07, 0x01, 0x06, 
  };
