#define bat_full_02_width 12
#define bat_full_02_height 12
static char bat_full_02_bits[] = {
  0x00, 0x00, 0x4C, 0x02, 0xFF, 0x03, 0x03, 0x06, 0x23, 0x0E, 0xF9, 0x0E, 
  0xFB, 0x0E, 0x31, 0x0E, 0x03, 0x06, 0xFF, 0x03, 0x64, 0x00, 0x00, 0x00, 
  };
