#define clock_width 12
#define clock_height 12
static char clock_bits[] = {
  0xF8, 0x01, 0xFC, 0x00, 0x7C, 0x06, 0x3F, 0x0F, 0xDF, 0x0F, 0xCF, 0x0F, 
  0x0F, 0x0C, 0x1F, 0x0C, 0xFF, 0x0F, 0xFE, 0x07, 0xF8, 0x01, 0xF8, 0x01, 
  };
