#define cpu_width 12
#define cpu_height 12
static char cpu_bits[] = {
  0x67, 0x0E, 0x43, 0x0C, 0x01, 0x08, 0xF0, 0x01, 0xF8, 0x01, 0xF9, 0x09, 
  0xF9, 0x09, 0xF9, 0x01, 0xF0, 0x00, 0x01, 0x08, 0x23, 0x0C, 0x67, 0x0E, 
  };
