#define eye_r_width 12
#define eye_r_height 12
static char eye_r_bits[] = {
  0x00, 0x00, 0x00, 0x00, 0x00, 0x00, 0xF0, 0x0F, 0x60, 0x0E, 0x00, 0x06, 
  0x00, 0x06, 0x01, 0x03, 0x97, 0x01, 0xFF, 0x0C, 0x5E, 0x0C, 0x00, 0x06, 
  };
