#define fox_width 12
#define fox_height 12
static char fox_bits[] = {
  0x03, 0x08, 0x03, 0x0C, 0x07, 0x0E, 0xFB, 0x0D, 0xFF, 0x0F, 0xFF, 0x0F, 
  0xF3, 0x0C, 0x63, 0x0C, 0xF7, 0x0E, 0xFE, 0x07, 0xF4, 0x01, 0x70, 0x00, 
  };
