#define fs_02_width 12
#define fs_02_height 12
static char fs_02_bits[] = {
  0xC3, 0x0F, 0xC3, 0x0E, 0xF7, 0x02, 0xFB, 0x01, 0x9F, 0x03, 0x9F, 0x07, 
  0x0E, 0x0F, 0xBC, 0x0D, 0xF8, 0x0D, 0xF4, 0x0E, 0x37, 0x0C, 0x3F, 0x0C, 
  };
