#define fs_01_width 12
#define fs_01_height 12
static char fs_01_bits[] = {
  0x1C, 0x02, 0x25, 0x08, 0xF1, 0x0C, 0xF0, 0x09, 0x9C, 0x07, 0x9E, 0x03, 
  0x0C, 0x03, 0x9C, 0x03, 0xF9, 0x01, 0xF3, 0x08, 0x41, 0x02, 0x04, 0x03, 
  };
