#define full_width 12
#define full_height 12
static char full_bits[] = {
  0xF8, 0x01, 0xFC, 0x01, 0xFC, 0x07, 0xFF, 0x0F, 0xFF, 0x0F, 0xFF, 0x0F, 
  0xFF, 0x0F, 0xFF, 0x0F, 0xFF, 0x0F, 0xFE, 0x07, 0xF8, 0x01, 0xF8, 0x01, 
  };
