#define half_width 12
#define half_height 12
static char half_bits[] = {
  0xF8, 0x01, 0xFC, 0x02, 0x3E, 0x06, 0x3F, 0x08, 0x3F, 0x08, 0x3F, 0x0C, 
  0x3F, 0x0C, 0x3F, 0x08, 0x3F, 0x0C, 0x3E, 0x02, 0xBC, 0x02, 0xF8, 0x01, 
  };
