#define mail_width 12
#define mail_height 12
static char mail_bits[] = {
  0x00, 0x00, 0x08, 0x02, 0xFF, 0x0F, 0xFE, 0x07, 0xFD, 0x01, 0xF9, 0x0D, 
  0xF7, 0x0E, 0x27, 0x0F, 0x1F, 0x0F, 0xFF, 0x0F, 0x04, 0x04, 0x00, 0x00, 
  };
