#define mem_width 12
#define mem_height 12
static char mem_bits[] = {
  0xA4, 0x09, 0x00, 0x08, 0x00, 0x00, 0xFC, 0x0F, 0xFC, 0x0F, 0xFE, 0x0F, 
  0xFC, 0x0F, 0xFC, 0x0F, 0xFC, 0x0F, 0x00, 0x00, 0x20, 0x00, 0x24, 0x09, 
  };
