#define mouse_01_width 12
#define mouse_01_height 12
static char mouse_01_bits[] = {
  0x3C, 0x0F, 0x3C, 0x0F, 0x3C, 0x0F, 0xBC, 0x0F, 0x06, 0x0C, 0x04, 0x08, 
  0x7C, 0x0F, 0xFC, 0x0F, 0xFC, 0x0F, 0xFC, 0x0F, 0xFC, 0x07, 0xF8, 0x03, 
  };
