#define net_down_03_width 12
#define net_down_03_height 12
static char net_down_03_bits[] = {
  0xE0, 0x01, 0xF0, 0x01, 0xF0, 0x01, 0xE0, 0x01, 0xF0, 0x01, 0xF0, 0x01, 
  0xFC, 0x0F, 0xFC, 0x0F, 0xF8, 0x07, 0xF0, 0x01, 0xE0, 0x00, 0x40, 0x00, 
  };
