#define next_width 12
#define next_height 12
static char next_bits[] = {
  0x00, 0x00, 0x04, 0x00, 0x06, 0x02, 0x3C, 0x06, 0x7C, 0x07, 0xFE, 0x03, 
  0xFC, 0x03, 0xFE, 0x07, 0x3E, 0x02, 0x04, 0x06, 0x04, 0x00, 0x00, 0x00, 
  };
