#define note_width 12
#define note_height 12
static char note_bits[] = {
  0xF8, 0x0F, 0xF8, 0x0F, 0xF8, 0x0F, 0x18, 0x0C, 0x18, 0x08, 0x08, 0x0C, 
  0x18, 0x0C, 0x08, 0x0C, 0x18, 0x0C, 0x0F, 0x0F, 0x9F, 0x0F, 0x8F, 0x0F, 
  };
