#define pacman_width 12
#define pacman_height 12
static char pacman_bits[] = {
  0xF8, 0x01, 0xFC, 0x03, 0x3C, 0x07, 0x8F, 0x0F, 0xDF, 0x0F, 0xFF, 0x0F, 
  0x1F, 0x00, 0x1F, 0x00, 0xFF, 0x00, 0xFE, 0x03, 0xFC, 0x01, 0xF8, 0x01, 
  };
