#define pause_width 12
#define pause_height 12
static char pause_bits[] = {
  0x00, 0x00, 0x08, 0x02, 0x0E, 0x03, 0x9C, 0x07, 0x0C, 0x07, 0x9E, 0x03, 
  0x0C, 0x03, 0x9E, 0x07, 0x9E, 0x07, 0x0C, 0x03, 0x04, 0x01, 0x00, 0x00, 
  };
