#define phones_width 12
#define phones_height 12
static char phones_bits[] = {
  0xF8, 0x01, 0xD4, 0x01, 0x06, 0x06, 0x01, 0x0C, 0x03, 0x08, 0x01, 0x0C, 
  0x0B, 0x0D, 0x9F, 0x0F, 0x9F, 0x0F, 0x0F, 0x0F, 0x1E, 0x0F, 0x8E, 0x03, 
  };
