#define play_width 12
#define play_height 12
static char play_bits[] = {
  0x00, 0x00, 0x04, 0x00, 0x1E, 0x00, 0x7C, 0x00, 0xFC, 0x01, 0xFE, 0x07, 
  0xFC, 0x03, 0xFE, 0x02, 0x7E, 0x00, 0x1C, 0x00, 0x08, 0x00, 0x00, 0x00, 
  };
