#define prev_width 12
#define prev_height 12
static char prev_bits[] = {
  0x00, 0x00, 0x00, 0x02, 0x06, 0x02, 0xC4, 0x07, 0xEC, 0x07, 0xFE, 0x03, 
  0xFC, 0x03, 0xFE, 0x07, 0xC6, 0x07, 0x04, 0x02, 0x00, 0x00, 0x00, 0x00, 
  };
