#define scorpio_width 12
#define scorpio_height 12
static char scorpio_bits[] = {
  0x04, 0x06, 0x02, 0x08, 0x03, 0x0C, 0x67, 0x0E, 0xFC, 0x03, 0xF8, 0x01, 
  0xF7, 0x0E, 0xE7, 0x06, 0x74, 0x02, 0xE3, 0x0C, 0xE0, 0x08, 0xC0, 0x01, 
  };
