#define spkr_02_width 12
#define spkr_02_height 12
static char spkr_02_bits[] = {
  0x30, 0x00, 0x38, 0x00, 0x38, 0x00, 0x3F, 0x00, 0x7F, 0x00, 0xFF, 0x00, 
  0x7F, 0x00, 0x7F, 0x00, 0x3F, 0x00, 0x38, 0x00, 0x38, 0x00, 0x30, 0x00, 
  };
