#define spkr_01_width 12
#define spkr_01_height 12
static char spkr_01_bits[] = {
  0x30, 0x00, 0x30, 0x00, 0x38, 0x06, 0x3F, 0x08, 0x3F, 0x09, 0xBF, 0x0D, 
  0xBF, 0x0D, 0x3F, 0x08, 0x3F, 0x08, 0x38, 0x06, 0x38, 0x00, 0x20, 0x00, 
  };
