#define stop_width 12
#define stop_height 12
static char stop_bits[] = {
  0x00, 0x00, 0x04, 0x01, 0xFC, 0x03, 0xFC, 0x03, 0xFE, 0x03, 0xFC, 0x07, 
  0xFC, 0x03, 0xFC, 0x03, 0xFC, 0x03, 0xFC, 0x03, 0x08, 0x00, 0x00, 0x00, 
  };
