#define temp_width 12
#define temp_height 12
static char temp_bits[] = {
  0x30, 0x0E, 0x00, 0x0F, 0x80, 0x0F, 0xC4, 0x07, 0xC4, 0x03, 0xB0, 0x01, 
  0xDC, 0x00, 0x57, 0x00, 0x33, 0x00, 0x33, 0x00, 0x1A, 0x00, 0x0E, 0x00, 
  };
