#define test_width 12
#define test_height 12
static char test_bits[] = {
  0x3E, 0x00, 0x7E, 0x00, 0xC7, 0x00, 0x83, 0x01, 0x01, 0x01, 0x03, 0x06, 
  0x06, 0x0C, 0x0C, 0x0C, 0x18, 0x0C, 0x20, 0x0E, 0xE0, 0x0F, 0xC0, 0x07, 
  };
