#define usb_02_width 12
#define usb_02_height 12
static char usb_02_bits[] = {
  0xC0, 0x00, 0xC0, 0x02, 0xC0, 0x06, 0xD8, 0x02, 0xC8, 0x06, 0xDC, 0x06, 
  0xD8, 0x03, 0xF8, 0x00, 0xF0, 0x00, 0xC0, 0x00, 0x40, 0x00, 0xE0, 0x00, 
  };
