#define wifi_01_width 12
#define wifi_01_height 12
static char wifi_01_bits[] = {
  0x00, 0x08, 0x00, 0x0C, 0x00, 0x0D, 0xA0, 0x0D, 0xB7, 0x0D, 0xA7, 0x09, 
  0x37, 0x0D, 0xA3, 0x0D, 0xA0, 0x0D, 0x00, 0x0D, 0x00, 0x08, 0x00, 0x0C, 
  };
