#define ac_width 12
#define ac_height 12
static char ac_bits[] = {
  0xFF, 0x0F, 0xF6, 0x0F, 0xF0, 0x0F, 0xC0, 0x0F, 0xC8, 0x0F, 0xCE, 0x0F, 
  0xBF, 0x07, 0x3F, 0x01, 0x3F, 0x00, 0xFF, 0x00, 0xFF, 0x0A, 0xFF, 0x0F, 
  };
