#define ac_01_width 12
#define ac_01_height 12
static char ac_01_bits[] = {
  0xC0, 0x01, 0xE0, 0x01, 0xB0, 0x03, 0x08, 0x0F, 0x9F, 0x0F, 0x0F, 0x01, 
  0x8F, 0x01, 0x1F, 0x0B, 0x18, 0x0F, 0xA0, 0x03, 0xE0, 0x01, 0xC0, 0x01, 
  };
