#define arch_10x10_width 15
#define arch_10x10_height 15
static char arch_10x10_bits[] = {
  0xC0, 0x00, 0x40, 0x00, 0xC0, 0x00, 0xF0, 0x01, 0xE0, 0x01, 0xF0, 0x01, 
  0xF8, 0x03, 0xF8, 0x07, 0xF8, 0x07, 0xBC, 0x0F, 0x3E, 0x0F, 0x0E, 0x0E, 
  0x1F, 0x1E, 0x07, 0x3C, 0x03, 0x30, };
