#define arch_width 23
#define arch_height 23
static char arch_bits[] = {
  0x00, 0x0E, 0x00, 0x00, 0x1E, 0x00, 0x00, 0x0E, 0x00, 0x00, 0x0E, 0x00, 
  0x00, 0x1E, 0x00, 0x00, 0x0E, 0x00, 0xC0, 0x1F, 0x00, 0xC0, 0x3F, 0x00, 
  0xC0, 0x3F, 0x00, 0xC0, 0x3F, 0x00, 0xC0, 0x3F, 0x00, 0xC0, 0x3F, 0x00, 
  0xF8, 0xF3, 0x00, 0xF8, 0xE1, 0x01, 0x38, 0xE0, 0x01, 0x38, 0xC0, 0x01, 
  0x78, 0xE0, 0x01, 0xFF, 0xF1, 0x0F, 0xFF, 0xF1, 0x0F, 0xFF, 0xE1, 0x0F, 
  0x07, 0x00, 0x0E, 0x07, 0x00, 0x0E, 0x07, 0x00, 0x0F, };
