#define art_width 23
#define art_height 14
static char art_bits[] = {
  0x00, 0xC0, 0x00, 0x00, 0xE0, 0x00, 0x00, 0xF0, 0x01, 0x00, 0xF8, 0x00, 
  0x00, 0x7C, 0x00, 0x00, 0x3E, 0x00, 0x00, 0x1F, 0x00, 0x80, 0x0F, 0x00, 
  0xC0, 0x07, 0x00, 0xE0, 0x03, 0x00, 0xF0, 0x01, 0x00, 0xF0, 0x00, 0x00, 
  0x28, 0x00, 0x00, 0x18, 0x00, 0x00, };
