#define bat_low_02_width 12
#define bat_low_02_height 12
static char bat_low_02_bits[] = {
  0x00, 0x00, 0x6D, 0x03, 0xFF, 0x03, 0x03, 0x06, 0x01, 0x0E, 0x1B, 0x0E, 
  0x0B, 0x0E, 0x0B, 0x06, 0x03, 0x06, 0xFF, 0x03, 0x6D, 0x01, 0x00, 0x00, 
  };
