#define bat_empty_02_width 12
#define bat_empty_02_height 12
static char bat_empty_02_bits[] = {
  0x00, 0x00, 0x6D, 0x03, 0xFF, 0x07, 0x03, 0x03, 0x03, 0x0E, 0x01, 0x0E, 
  0x03, 0x0E, 0x03, 0x06, 0x03, 0x07, 0xFF, 0x07, 0x6D, 0x01, 0x00, 0x00, 
  };
