#define bat_empty_01_width 12
#define bat_empty_01_height 12
static char bat_empty_01_bits[] = {
  0xE0, 0x00, 0xF8, 0x03, 0xFE, 0x03, 0x0C, 0x06, 0x06, 0x06, 0x06, 0x02, 
  0x04, 0x06, 0x06, 0x06, 0x06, 0x06, 0x04, 0x02, 0xBE, 0x07, 0xFE, 0x03, 
  };
