#define bat_full_01_width 12
#define bat_full_01_height 12
static char bat_full_01_bits[] = {
  0xE0, 0x00, 0xF4, 0x03, 0xFC, 0x03, 0x0C, 0x02, 0x46, 0x02, 0x74, 0x06, 
  0xF4, 0x02, 0x74, 0x06, 0x66, 0x06, 0x04, 0x02, 0x5C, 0x07, 0xFE, 0x03, 
  };
