#define bat_low_01_width 12
#define bat_low_01_height 12
static char bat_low_01_bits[] = {
  0xE0, 0x00, 0xFC, 0x03, 0xFE, 0x03, 0x04, 0x06, 0x06, 0x06, 0x06, 0x06, 
  0x04, 0x06, 0x26, 0x02, 0x66, 0x06, 0x04, 0x02, 0xBE, 0x07, 0xFE, 0x03, 
  };
