#define battery_width 23
#define battery_height 23
static char battery_bits[] = {
  0x00, 0x3E, 0x00, 0x00, 0x3E, 0x00, 0x00, 0x3E, 0x00, 0xF8, 0xFF, 0x0F, 
  0xF8, 0xFF, 0x0F, 0xF8, 0xFF, 0x0F, 0x78, 0x08, 0x0E, 0x38, 0x00, 0x0E, 
  0x38, 0x00, 0x0E, 0x38, 0x1E, 0x0E, 0x78, 0x3E, 0x0E, 0x38, 0x3E, 0x0E, 
  0x38, 0x3E, 0x0E, 0x38, 0x3E, 0x0E, 0x38, 0x3E, 0x0E, 0x38, 0x3E, 0x0E, 
  0x38, 0x1E, 0x0E, 0x38, 0x00, 0x0E, 0x38, 0x00, 0x0E, 0x78, 0x00, 0x0F, 
  0xF8, 0xFF, 0x0F, 0xF8, 0xFF, 0x0F, 0xF8, 0xFF, 0x0F, };
