#define battery80_width 21
#define battery80_height 14
static char battery80_bits[] = {
  0xFF, 0xFF, 0x03, 0xDF, 0xB6, 0x03, 0x01, 0x00, 0x02, 0xF3, 0x1F, 0x1F, 
  0xFB, 0x1F, 0x1F, 0xF9, 0x3F, 0x12, 0xF9, 0x3F, 0x13, 0xFB, 0x1F, 0x1B, 
  0xFB, 0x3F, 0x1A, 0xF9, 0x3F, 0x1F, 0xFB, 0x1F, 0x1F, 0x01, 0x00, 0x02, 
  0xBF, 0x6E, 0x03, 0xFF, 0xFF, 0x03, };
