#define battery40_width 21
#define battery40_height 14
static char battery40_bits[] = {
  0xFF, 0xFF, 0x03, 0xFF, 0xFB, 0x03, 0x03, 0x00, 0x03, 0x79, 0x00, 0x1F, 
  0xFB, 0x00, 0x1E, 0x7B, 0x00, 0x1B, 0xF9, 0x00, 0x1A, 0xFB, 0x00, 0x1B, 
  0xFB, 0x00, 0x1A, 0xFB, 0x00, 0x1F, 0x7B, 0x00, 0x1F, 0x03, 0x00, 0x03, 
  0xBF, 0xBF, 0x03, 0xFF, 0xFF, 0x03, };
