#define battery20_width 21
#define battery20_height 14
static char battery20_bits[] = {
  0xFF, 0xFF, 0x03, 0xFF, 0xFB, 0x03, 0x03, 0x00, 0x03, 0x09, 0x00, 0x1F, 
  0x1B, 0x00, 0x1F, 0x1B, 0x00, 0x1B, 0x0B, 0x00, 0x1A, 0x1B, 0x00, 0x1B, 
  0x19, 0x00, 0x1B, 0x0B, 0x00, 0x1F, 0x1B, 0x00, 0x1E, 0x03, 0x00, 0x07, 
  0xFF, 0x7F, 0x03, 0xFF, 0xFF, 0x03, };
