#define battery50_width 21
#define battery50_height 14
static char battery50_bits[] = {
  0xFF, 0xFF, 0x03, 0x7F, 0xFB, 0x03, 0x03, 0x00, 0x03, 0xF9, 0x01, 0x1F, 
  0xFB, 0x01, 0x1E, 0xF9, 0x01, 0x1B, 0xFB, 0x01, 0x1B, 0xFB, 0x01, 0x1A, 
  0xF9, 0x01, 0x13, 0xFB, 0x01, 0x1F, 0xFB, 0x01, 0x1E, 0x03, 0x00, 0x03, 
  0xBF, 0xBE, 0x03, 0xFF, 0xFF, 0x03, };
