#define battery10_width 21
#define battery10_height 14
static char battery10_bits[] = {
  0xFF, 0xFF, 0x03, 0xFF, 0xFF, 0x03, 0x01, 0x00, 0x03, 0x03, 0x00, 0x1F, 
  0x03, 0x00, 0x1F, 0x03, 0x00, 0x1A, 0x03, 0x00, 0x1B, 0x03, 0x00, 0x1B, 
  0x01, 0x00, 0x1B, 0x03, 0x00, 0x1F, 0x03, 0x00, 0x1F, 0x03, 0x00, 0x03, 
  0xFF, 0x7F, 0x03, 0xFF, 0xFF, 0x07, };
