#define battery70_width 21
#define battery70_height 14
static char battery70_bits[] = {
  0xFF, 0xFF, 0x03, 0xEF, 0xF6, 0x03, 0x03, 0x00, 0x03, 0xF9, 0x0F, 0x1F, 
  0xFB, 0x0F, 0x1F, 0xF9, 0x0F, 0x12, 0xF9, 0x0F, 0x13, 0xFB, 0x0F, 0x1B, 
  0xFB, 0x0F, 0x13, 0xF9, 0x0F, 0x1F, 0xFB, 0x0F, 0x1E, 0x03, 0x00, 0x03, 
  0xB7, 0x6E, 0x03, 0xFF, 0xFF, 0x03, };
