#define battery90_width 21
#define battery90_height 14
static char battery90_bits[] = {
  0xFF, 0xFF, 0x03, 0x4B, 0x92, 0x03, 0x01, 0x00, 0x02, 0xF9, 0x7F, 0x1F, 
  0xFB, 0x7F, 0x1F, 0xF9, 0x7F, 0x12, 0xF9, 0x7F, 0x13, 0xFB, 0x7F, 0x1A, 
  0xFB, 0x7F, 0x12, 0xF9, 0x7F, 0x1F, 0xF3, 0x6F, 0x1E, 0x01, 0x00, 0x02, 
  0xD7, 0xBA, 0x03, 0xFF, 0xFF, 0x03, };
