#define battery60_width 21
#define battery60_height 14
static char battery60_bits[] = {
  0xFF, 0xFF, 0x03, 0xEF, 0xFE, 0x03, 0x03, 0x00, 0x02, 0xF9, 0x03, 0x1F, 
  0xFB, 0x03, 0x1F, 0xF9, 0x07, 0x1A, 0xFB, 0x07, 0x13, 0xFB, 0x03, 0x1B, 
  0xF9, 0x07, 0x13, 0xFB, 0x03, 0x1F, 0xFB, 0x07, 0x1E, 0x03, 0x00, 0x03, 
  0xBF, 0x6E, 0x03, 0xFF, 0xFF, 0x03, };
