#define bluetooth_width 12
#define bluetooth_height 12
static char bluetooth_bits[] = {
  0xE0, 0x00, 0xB4, 0x00, 0xB4, 0x03, 0x38, 0x03, 0xF0, 0x03, 0xF0, 0x01, 
  0xF0, 0x01, 0xF0, 0x03, 0x38, 0x03, 0xB4, 0x03, 0xE4, 0x00, 0x70, 0x00, 
  };
