#define bug_02_width 12
#define bug_02_height 12
static char bug_02_bits[] = {
  0x07, 0x0E, 0x07, 0x0E, 0x08, 0x01, 0x98, 0x01, 0x67, 0x0D, 0xFF, 0x0E, 
  0xF8, 0x01, 0xFC, 0x03, 0xFE, 0x07, 0xF1, 0x0C, 0x02, 0x04, 0x06, 0x06, 
  };
