#define bug_01_width 12
#define bug_01_height 12
static char bug_01_bits[] = {
  0x07, 0x0E, 0x03, 0x09, 0x08, 0x01, 0xF0, 0x00, 0xE5, 0x0A, 0xF7, 0x0E, 
  0xF8, 0x01, 0xFC, 0x01, 0xFE, 0x03, 0xF9, 0x0F, 0xF1, 0x08, 0xF3, 0x0C, 
  };
