#define calendar_width 21
#define calendar_height 14
static char calendar_bits[] = {
  0x58, 0x96, 0x00, 0xFE, 0xFF, 0x0B, 0xFF, 0xFF, 0x1F, 0xDB, 0xF7, 0x19, 
  0x43, 0x10, 0x18, 0x03, 0x00, 0x10, 0x03, 0x10, 0x1C, 0x43, 0x92, 0x1C, 
  0x03, 0x00, 0x18, 0x49, 0x00, 0x18, 0x43, 0x92, 0x1C, 0x03, 0x00, 0x18, 
  0xBF, 0x6F, 0x1B, 0xFF, 0xFF, 0x1F, };
