#define cat_width 12
#define cat_height 12
static char cat_bits[] = {
  0x03, 0x08, 0x03, 0x0C, 0x07, 0x0E, 0xF3, 0x0D, 0xFF, 0x0F, 0xFF, 0x0F, 
  0xF3, 0x0C, 0xF3, 0x0C, 0xFF, 0x0F, 0xFC, 0x07, 0xFD, 0x01, 0xF9, 0x0D, 
  };
