#define code_width 23
#define code_height 14
static char code_bits[] = {
  0x80, 0x01, 0x00, 0x00, 0x03, 0x00, 0x00, 0x07, 0x00, 0x00, 0x0E, 0x00, 
  0x00, 0x0E, 0x00, 0x00, 0x1E, 0x00, 0x00, 0x3C, 0x00, 0x00, 0x3C, 0x00, 
  0x00, 0xFE, 0x00, 0x00, 0x77, 0x00, 0x00, 0xE7, 0x00, 0x80, 0xE7, 0x01, 
  0x80, 0xC3, 0x03, 0xC0, 0x03, 0x07, };
