#define corner_width 6
#define corner_height 18
static char corner_bits[] = {
  0x3F, 0x3F, 0x0F, 0x07, 0x07, 0x01, 0x00, 0x00, 0x00, 0x00, 0x00, 0x00, 
  0x00, 0x00, 0x00, 0x00, 0x00, 0x00, };
