#define corner_left_width 15
#define corner_left_height 18
static char corner_left_bits[] = {
  0xFE, 0x7F, 0xFE, 0x7F, 0xFF, 0x7F, 0xFF, 0x7F, 0xFF, 0x7F, 0xFF, 0x7F, 
  0xFE, 0x7F, 0xF8, 0x7F, 0xF8, 0x7F, 0xE0, 0x7F, 0xE0, 0x7F, 0xC0, 0x7F, 
  0x80, 0x7F, 0x00, 0x7E, 0x00, 0x7E, 0x00, 0x7C, 0x00, 0x78, 0x00, 0x70, 
  };
