#define cpu_width 21
#define cpu_height 14
static char cpu_bits[] = {
  0xFF, 0x10, 0x00, 0xFF, 0x39, 0x00, 0xFC, 0x3F, 0x00, 0xFE, 0x1F, 0x00, 
  0x7C, 0x1F, 0x00, 0x0E, 0x3E, 0x00, 0x1C, 0x3E, 0x00, 0x0E, 0x1E, 0x00, 
  0x1F, 0x0E, 0x00, 0xDF, 0x0F, 0x00, 0xFF, 0x0F, 0x00, 0xFF, 0x0F, 0x00, 
  0xA3, 0x1F, 0x00, 0x83, 0x1F, 0x00, };
