#define dish_width 12
#define dish_height 12
static char dish_bits[] = {
  0x03, 0x08, 0x43, 0x06, 0xE7, 0x03, 0x1E, 0x06, 0x1C, 0x06, 0x3E, 0x02, 
  0x78, 0x02, 0xFC, 0x02, 0xFC, 0x01, 0xCF, 0x03, 0x8F, 0x0F, 0x07, 0x0E, 
  };
