#define diskette_width 12
#define diskette_height 12
static char diskette_bits[] = {
  0xFF, 0x0F, 0x97, 0x0D, 0x01, 0x0C, 0x03, 0x08, 0x03, 0x08, 0x01, 0x0C, 
  0xFB, 0x0D, 0xF9, 0x09, 0xD9, 0x0D, 0xCB, 0x09, 0xFD, 0x0F, 0xFE, 0x0F, 
  };
