#define docs_width 23
#define docs_height 14
static char docs_bits[] = {
  0xC0, 0x3F, 0x00, 0xC0, 0x3F, 0x00, 0xC0, 0x30, 0x00, 0xC0, 0xF0, 0x01, 
  0xC0, 0xF0, 0x01, 0xC0, 0x80, 0x01, 0xC0, 0x80, 0x01, 0xC0, 0x80, 0x01, 
  0xC0, 0x80, 0x01, 0xC0, 0x80, 0x01, 0xC0, 0x80, 0x01, 0xC0, 0x80, 0x01, 
  0xC0, 0xFF, 0x01, 0xC0, 0xFF, 0x01, };
