#define empty_width 12
#define empty_height 12
static char empty_bits[] = {
  0xF8, 0x01, 0xFC, 0x03, 0x06, 0x06, 0x03, 0x0C, 0x03, 0x0C, 0x03, 0x0C, 
  0x03, 0x0C, 0x03, 0x0C, 0x01, 0x0C, 0x07, 0x06, 0xFC, 0x03, 0xF8, 0x01, 
  };
