#define eye_l_width 12
#define eye_l_height 12
static char eye_l_bits[] = {
  0x00, 0x00, 0x00, 0x00, 0x00, 0x00, 0xF7, 0x00, 0x67, 0x00, 0x06, 0x00, 
  0x06, 0x00, 0x0C, 0x08, 0x18, 0x0E, 0xF3, 0x0F, 0xE6, 0x0E, 0x06, 0x00, 
  };
