#define fwd_width 12
#define fwd_height 12
static char fwd_bits[] = {
  0x00, 0x00, 0x00, 0x00, 0xC6, 0x00, 0xCC, 0x01, 0xFC, 0x03, 0xFE, 0x07, 
  0xFC, 0x03, 0xFE, 0x03, 0xCE, 0x01, 0xC4, 0x00, 0x00, 0x00, 0x00, 0x00, 
  };
