#define games_width 23
#define games_height 14
static char games_bits[] = {
  0x00, 0x00, 0x00, 0x00, 0x00, 0x00, 0x40, 0x80, 0x01, 0x80, 0x41, 0x00, 
  0x80, 0xEB, 0x00, 0xC0, 0xFF, 0x01, 0xE0, 0xFF, 0x03, 0xF0, 0xBE, 0x07, 
  0xF8, 0xFF, 0x0F, 0xF8, 0xFF, 0x0D, 0xD8, 0xFF, 0x0D, 0xD8, 0x80, 0x0D, 
  0x00, 0x65, 0x00, 0x80, 0x77, 0x00, };
