#define info_02_width 12
#define info_02_height 12
static char info_02_bits[] = {
  0xFF, 0x0F, 0x9F, 0x0F, 0x8F, 0x0F, 0xDF, 0x0F, 0xDF, 0x0F, 0x0F, 0x0F, 
  0x0F, 0x0F, 0x0F, 0x0F, 0x1F, 0x0F, 0x0F, 0x0F, 0x9F, 0x0F, 0xFF, 0x0F, 
  };
