#define info_03_width 12
#define info_03_height 12
static char info_03_bits[] = {
  0xE0, 0x01, 0xF0, 0x01, 0xF0, 0x01, 0x00, 0x00, 0xA0, 0x00, 0xF8, 0x01, 
  0xF0, 0x01, 0xE0, 0x01, 0xE0, 0x01, 0xF0, 0x01, 0xF0, 0x03, 0xF8, 0x03, 
  };
