#define info_01_width 12
#define info_01_height 12
static char info_01_bits[] = {
  0xF8, 0x01, 0x9C, 0x03, 0x9C, 0x07, 0xFF, 0x0F, 0xDF, 0x0F, 0x0F, 0x0F, 
  0x0F, 0x0F, 0x8F, 0x0F, 0x8F, 0x0F, 0x0E, 0x07, 0xBC, 0x01, 0xF8, 0x01, 
  };
