#define lan_width 21
#define lan_height 14
static char lan_bits[] = {
  0x00, 0x7F, 0x00, 0x80, 0x7B, 0x00, 0x80, 0x63, 0x00, 0x80, 0xFF, 0x00, 
  0x00, 0x7F, 0x00, 0x00, 0x0C, 0x00, 0xFC, 0xFF, 0x1F, 0xFC, 0xF7, 0x1F, 
  0x30, 0x00, 0x03, 0xFC, 0xC0, 0x1F, 0xFE, 0xE3, 0x1F, 0x8C, 0x61, 0x18, 
  0xFC, 0xC1, 0x1F, 0xFE, 0xE1, 0x1F, };
