#define layout_tall_width 23
#define layout_tall_height 14
static char layout_tall_bits[] = {
  0xFF, 0xFF, 0x7F, 0xEF, 0xFF, 0x7E, 0x01, 0x08, 0x40, 0x03, 0x1C, 0x60, 
  0x03, 0x0C, 0x60, 0x03, 0x18, 0x60, 0x03, 0xF8, 0x7F, 0x03, 0xF8, 0x7E, 
  0x01, 0x0C, 0x60, 0x03, 0x18, 0x40, 0x03, 0x08, 0x60, 0x03, 0x1C, 0x60, 
  0xFF, 0x7F, 0x7F, 0xFF, 0xFF, 0x7F, };
