#define layout_full_width 23
#define layout_full_height 14
static char layout_full_bits[] = {
  0xFF, 0xFF, 0x7F, 0xFF, 0xFF, 0x7F, 0x03, 0x00, 0x60, 0x03, 0x00, 0x60, 
  0x03, 0x00, 0x60, 0x03, 0x00, 0x60, 0x03, 0x00, 0x60, 0x03, 0x00, 0x60, 
  0x03, 0x00, 0x60, 0x03, 0x00, 0x60, 0x03, 0x00, 0x40, 0x03, 0x00, 0x60, 
  0xBF, 0xFF, 0x7F, 0xFF, 0xFF, 0x7F, };
