#define media_width 23
#define media_height 14
static char media_bits[] = {
  0x00, 0x00, 0x00, 0xA0, 0x6D, 0x03, 0xF8, 0xFF, 0x0F, 0x18, 0x06, 0x0C, 
  0x18, 0x0E, 0x0C, 0x18, 0x1E, 0x08, 0x08, 0x3E, 0x0C, 0x18, 0x1E, 0x08, 
  0x18, 0x1E, 0x0C, 0x08, 0x0E, 0x08, 0x98, 0x06, 0x0E, 0xF8, 0xFF, 0x0F, 
  0x20, 0x55, 0x02, 0x00, 0x00, 0x00, };
