#define music_width 21
#define music_height 14
static char music_bits[] = {
  0xF8, 0xFF, 0x01, 0xF8, 0xFB, 0x01, 0x08, 0x80, 0x00, 0x18, 0x80, 0x01, 
  0x1C, 0x80, 0x01, 0x18, 0xC0, 0x01, 0x08, 0xE0, 0x00, 0x18, 0xE0, 0x01, 
  0x1C, 0xF0, 0x01, 0x0C, 0xF0, 0x00, 0x1E, 0x70, 0x00, 0x1F, 0x00, 0x00, 
  0x0F, 0x00, 0x00, 0x07, 0x00, 0x00, };
