#define net_up_02_width 12
#define net_up_02_height 12
static char net_up_02_bits[] = {
  0x70, 0x00, 0xF0, 0x00, 0xF8, 0x01, 0xFC, 0x03, 0xFE, 0x07, 0xFF, 0x0F, 
  0xF8, 0x01, 0xF8, 0x01, 0xF8, 0x01, 0xF8, 0x01, 0xF8, 0x00, 0x7E, 0x00, 
  };
