#define net_up_03_width 12
#define net_up_03_height 12
static char net_up_03_bits[] = {
  0x40, 0x00, 0xE0, 0x01, 0xF0, 0x01, 0xF8, 0x03, 0xFC, 0x0F, 0xFC, 0x0F, 
  0xF0, 0x01, 0xE0, 0x01, 0xE0, 0x01, 0xF0, 0x01, 0xE0, 0x01, 0xF0, 0x01, 
  };
