#define net_down_02_width 12
#define net_down_02_height 12
static char net_down_02_bits[] = {
  0xE0, 0x07, 0xF0, 0x01, 0xF8, 0x01, 0xF8, 0x01, 0xF8, 0x01, 0xF8, 0x01, 
  0xFF, 0x0F, 0xFE, 0x07, 0xFC, 0x03, 0xF8, 0x01, 0xF0, 0x00, 0x70, 0x00, 
  };
