#define net_wired_width 12
#define net_wired_height 12
static char net_wired_bits[] = {
  0x00, 0x00, 0x20, 0x00, 0xF8, 0x00, 0x78, 0x00, 0xFD, 0x01, 0xFF, 0x07, 
  0xFF, 0x03, 0xFF, 0x07, 0xFF, 0x03, 0xCB, 0x02, 0xFF, 0x07, 0xFF, 0x03, 
  };
