#define next_width 14
#define next_height 14
static char next_bits[] = {
  0xC0, 0x00, 0x80, 0x00, 0xC3, 0x03, 0xC7, 0x03, 0xCF, 0x0F, 0xDF, 0x1F, 
  0xFF, 0x3F, 0xFF, 0x1F, 0xDF, 0x0F, 0x8F, 0x0F, 0xC7, 0x03, 0xC3, 0x03, 
  0x80, 0x00, 0xC0, 0x00, };
