#define note_width 10
#define note_height 10
static char note_bits[] = {
  0xF8, 0x03, 0xFC, 0x03, 0x68, 0x03, 0x0C, 0x02, 0x08, 0x03, 0x0C, 0x02, 
  0x08, 0x02, 0x4D, 0x03, 0xCF, 0x03, 0xCF, 0x03, };
