#define pause_width 11
#define pause_height 11
static char pause_bits[] = {
  0x70, 0x06, 0x70, 0x06, 0x70, 0x06, 0x70, 0x06, 0x70, 0x07, 0x70, 0x06, 
  0x70, 0x06, 0x70, 0x06, 0x70, 0x06, 0x70, 0x07, 0x70, 0x06, };
