#define pics_width 23
#define pics_height 14
static char pics_bits[] = {
  0x00, 0x00, 0x00, 0x00, 0x08, 0x01, 0xFC, 0xFF, 0x3F, 0x06, 0x00, 0x10, 
  0x04, 0x00, 0x10, 0x04, 0x00, 0x11, 0x24, 0xC8, 0x33, 0x2C, 0xCC, 0x17, 
  0xFC, 0xBC, 0x3F, 0xFE, 0x7F, 0x1F, 0xFC, 0x7F, 0x1E, 0xFC, 0xFF, 0x3F, 
  0x40, 0x90, 0x04, 0x00, 0x00, 0x00, };
