#define playpause_width 14
#define playpause_height 14
static char playpause_bits[] = {
  0x03, 0x26, 0x03, 0x34, 0x0F, 0x36, 0x0F, 0x26, 0x3F, 0x36, 0x3F, 0x34, 
  0xFF, 0x26, 0x7F, 0x36, 0x7F, 0x24, 0x1F, 0x36, 0x0F, 0x36, 0x0F, 0x26, 
  0x03, 0x36, 0x03, 0x34, };
