#define play_width 11
#define play_height 11
static char play_bits[] = {
  0x20, 0x00, 0x60, 0x00, 0xE0, 0x00, 0xE0, 0x01, 0xE0, 0x03, 0xE0, 0x07, 
  0xE0, 0x03, 0xE0, 0x01, 0xE0, 0x00, 0x60, 0x00, 0x20, 0x00, };
