#define plug_width 12
#define plug_height 12
static char plug_bits[] = {
  0x07, 0x00, 0x2F, 0x00, 0x3F, 0x00, 0x7E, 0x00, 0xFE, 0x00, 0xFC, 0x01, 
  0xFC, 0x01, 0xF0, 0x02, 0x60, 0x06, 0x80, 0x09, 0x00, 0x0E, 0x00, 0x0E, 
  };
