#define prev_width 14
#define prev_height 14
static char prev_bits[] = {
  0xC0, 0x00, 0xC0, 0x00, 0xE0, 0x30, 0xF0, 0x38, 0xFC, 0x38, 0xFC, 0x3E, 
  0xFF, 0x3F, 0xFF, 0x3F, 0xFC, 0x3E, 0xFC, 0x3C, 0xF0, 0x38, 0x70, 0x30, 
  0xC0, 0x00, 0xC0, 0x00, };
