#define rwd_width 12
#define rwd_height 12
static char rwd_bits[] = {
  0x00, 0x00, 0x00, 0x00, 0x30, 0x02, 0x38, 0x07, 0xFC, 0x07, 0xFE, 0x03, 
  0xFC, 0x03, 0xFC, 0x07, 0x38, 0x07, 0x30, 0x02, 0x00, 0x00, 0x00, 0x00, 
  };
