#define shroom_width 12
#define shroom_height 12
static char shroom_bits[] = {
  0xF8, 0x01, 0xB8, 0x03, 0x04, 0x06, 0x03, 0x08, 0x01, 0x0C, 0x03, 0x0C, 
  0xFF, 0x0F, 0xFF, 0x0D, 0xF8, 0x01, 0xF8, 0x01, 0xF8, 0x01, 0xF8, 0x01, 
  };
