#define spkr_03_width 12
#define spkr_03_height 12
static char spkr_03_bits[] = {
  0x38, 0x06, 0x5D, 0x08, 0x47, 0x0C, 0xC7, 0x0C, 0xCF, 0x08, 0xCF, 0x0C, 
  0x4F, 0x0C, 0xCF, 0x0C, 0xC7, 0x08, 0x47, 0x0C, 0x3D, 0x04, 0x38, 0x06, 
  };
