#define stop_width 14
#define stop_height 14
static char stop_bits[] = {
  0x00, 0x00, 0x00, 0x00, 0xFC, 0x0F, 0xFC, 0x0F, 0xFC, 0x0F, 0xFC, 0x0F, 
  0xFC, 0x0F, 0xFC, 0x0F, 0xFC, 0x0F, 0xFC, 0x0F, 0xFC, 0x0F, 0xFC, 0x0F, 
  0x20, 0x00, 0x00, 0x00, };
