#define tall_width 18
#define tall_height 18
static char tall_bits[] = {
  0xFF, 0xF9, 0x03, 0xFF, 0xF9, 0x03, 0xFF, 0xF8, 0x03, 0xFF, 0xF9, 0x03, 
  0xFF, 0x80, 0x00, 0xFF, 0x01, 0x00, 0xFF, 0xB9, 0x03, 0xFF, 0xF8, 0x03, 
  0xFF, 0xF9, 0x03, 0xFF, 0xF9, 0x03, 0xFF, 0xF8, 0x03, 0xFF, 0xF9, 0x03, 
  0xFF, 0x01, 0x00, 0xFF, 0x00, 0x00, 0xFF, 0xF9, 0x03, 0xFF, 0xF9, 0x03, 
  0xFF, 0xF9, 0x03, 0xFF, 0xF9, 0x03, };
