#define term_width 23
#define term_height 14
static char term_bits[] = {
  0x00, 0x00, 0x00, 0xA0, 0x69, 0x0A, 0xF8, 0xFF, 0x0F, 0x38, 0x18, 0x0D, 
  0x18, 0x00, 0x0C, 0xD8, 0x00, 0x08, 0x08, 0x01, 0x0C, 0x98, 0x01, 0x0C, 
  0xD8, 0x00, 0x0C, 0x18, 0x00, 0x08, 0x18, 0x18, 0x0E, 0xF8, 0xFF, 0x0F, 
  0xA0, 0x55, 0x02, 0x00, 0x00, 0x00, };
