#define time_width 21
#define time_height 14
static char time_bits[] = {
  0x00, 0xFE, 0x03, 0x00, 0xFF, 0x07, 0x80, 0x01, 0x0C, 0xC0, 0x10, 0x18, 
  0xC0, 0x30, 0x10, 0xC0, 0x30, 0x18, 0xC0, 0x30, 0x18, 0xC0, 0x70, 0x18, 
  0xC0, 0xF0, 0x11, 0x40, 0xE0, 0x18, 0xC0, 0x00, 0x18, 0x80, 0x01, 0x0C, 
  0x00, 0xFF, 0x07, 0x00, 0xFE, 0x03, };
