#define usb_width 12
#define usb_height 12
static char usb_bits[] = {
  0xC0, 0x07, 0xA0, 0x06, 0x20, 0x0C, 0x18, 0x0E, 0x0C, 0x0F, 0x86, 0x0F, 
  0xFC, 0x07, 0xFE, 0x01, 0xC4, 0x01, 0x33, 0x00, 0x1B, 0x00, 0x0F, 0x00, 
  };
