#define volume50_width 21
#define volume50_height 14
static char volume50_bits[] = {
  0xC0, 0x00, 0x18, 0xE0, 0x00, 0x10, 0x70, 0x00, 0x00, 0xF8, 0x10, 0x00, 
  0xFE, 0x30, 0x00, 0x7F, 0x36, 0x00, 0xFF, 0x16, 0x00, 0xFF, 0x36, 0x00, 
  0xFF, 0x16, 0x00, 0x7D, 0x32, 0x00, 0xF8, 0x10, 0x00, 0xF0, 0x00, 0x00, 
  0x60, 0x00, 0x10, 0xC0, 0x00, 0x18, };
