#define volume100_width 21
#define volume100_height 14
static char volume100_bits[] = {
  0xC0, 0x00, 0x1C, 0xE0, 0x00, 0x1C, 0x70, 0x80, 0x0C, 0xF8, 0x90, 0x05, 
  0xFC, 0xB0, 0x0C, 0x7F, 0xB6, 0x0D, 0xFF, 0x92, 0x0C, 0xFF, 0xB6, 0x05, 
  0x7F, 0xB2, 0x0C, 0xFD, 0xB2, 0x0D, 0xF8, 0x90, 0x0D, 0x70, 0x80, 0x0C, 
  0xE0, 0x00, 0x0C, 0x40, 0x00, 0x1C, };
