#define volume75_width 21
#define volume75_height 14
static char volume75_bits[] = {
  0xC0, 0x00, 0x18, 0xE0, 0x00, 0x10, 0x70, 0x80, 0x00, 0xF8, 0xB0, 0x01, 
  0xFC, 0xB0, 0x00, 0x7F, 0x96, 0x01, 0xFF, 0xB6, 0x01, 0xFF, 0xB2, 0x00, 
  0xFF, 0x96, 0x00, 0x7D, 0xB2, 0x01, 0xF8, 0xB0, 0x00, 0xF0, 0x80, 0x01, 
  0x60, 0x00, 0x10, 0xC0, 0x00, 0x10, };
