#define volume0_width 21
#define volume0_height 14
static char volume0_bits[] = {
  0xC0, 0x01, 0x10, 0xE0, 0x03, 0x18, 0x70, 0x02, 0x04, 0xF8, 0x0C, 0x03, 
  0xFC, 0x08, 0x03, 0x7F, 0xB0, 0x00, 0xFF, 0x60, 0x00, 0xFF, 0xC0, 0x00, 
  0xFF, 0xB0, 0x00, 0x7D, 0x08, 0x01, 0xF8, 0x0C, 0x03, 0xF0, 0x02, 0x0C, 
  0xE0, 0x01, 0x00, 0xC0, 0x01, 0x18, };
