#define volume25_width 21
#define volume25_height 14
static char volume25_bits[] = {
  0x40, 0x00, 0x18, 0xE0, 0x00, 0x10, 0xF0, 0x00, 0x00, 0x78, 0x00, 0x00, 
  0xFE, 0x00, 0x00, 0xFF, 0x06, 0x00, 0x7F, 0x02, 0x00, 0xFF, 0x06, 0x00, 
  0xFF, 0x06, 0x00, 0x7D, 0x02, 0x00, 0xF8, 0x00, 0x00, 0xF0, 0x00, 0x00, 
  0x60, 0x00, 0x10, 0xC0, 0x00, 0x18, };
