#define wifi_width 23
#define wifi_height 23
static char wifi_bits[] = {
  0x00, 0x00, 0x70, 0x00, 0x00, 0x70, 0x00, 0x00, 0x70, 0x00, 0xC0, 0x71, 
  0x00, 0xC0, 0x71, 0x00, 0xC0, 0x71, 0x00, 0xEE, 0x71, 0x00, 0xCE, 0x71, 
  0x00, 0xCE, 0x71, 0x3F, 0xEE, 0x71, 0x3F, 0xEE, 0x71, 0x3F, 0xCE, 0x71, 
  0x3F, 0xCE, 0x71, 0x3F, 0xDE, 0x71, 0x00, 0xEE, 0x71, 0x00, 0xCE, 0x71, 
  0x00, 0xCE, 0x71, 0x00, 0xC0, 0x71, 0x00, 0xC0, 0x71, 0x00, 0xC0, 0x71, 
  0x00, 0x00, 0x70, 0x00, 0x00, 0x70, 0x00, 0x00, 0x70, };
