#define wifi_02_width 12
#define wifi_02_height 12
static char wifi_02_bits[] = {
  0x00, 0x06, 0x00, 0x04, 0xC0, 0x0C, 0x88, 0x0D, 0x90, 0x0F, 0x33, 0x09, 
  0xB3, 0x0D, 0x91, 0x0D, 0x08, 0x0D, 0xC0, 0x0C, 0x00, 0x04, 0x00, 0x06, 
  };
