#define wireless4_width 21
#define wireless4_height 14
static char wireless4_bits[] = {
  0x00, 0x00, 0x00, 0x00, 0x00, 0x00, 0x00, 0x00, 0x00, 0x00, 0xC0, 0x00, 
  0x00, 0xE0, 0x01, 0x00, 0xC0, 0x00, 0x00, 0xCE, 0x01, 0x00, 0xEE, 0x00, 
  0x00, 0xEE, 0x01, 0x40, 0xEE, 0x00, 0xF0, 0xCE, 0x01, 0xF0, 0xEE, 0x00, 
  0x63, 0xEE, 0x01, 0xF7, 0xEE, 0x00, };
