#define wireless3_width 21
#define wireless3_height 14
static char wireless3_bits[] = {
  0x00, 0x00, 0x00, 0x00, 0x00, 0x00, 0x00, 0x00, 0x00, 0x00, 0x00, 0x00, 
  0x00, 0x00, 0x00, 0x00, 0x00, 0x00, 0x00, 0x0E, 0x00, 0x00, 0x0E, 0x00, 
  0x00, 0x0E, 0x00, 0x60, 0x0E, 0x00, 0xF0, 0x0E, 0x00, 0xF0, 0x0E, 0x00, 
  0x73, 0x0E, 0x00, 0xF7, 0x1E, 0x00, };
