#define wireless2_width 21
#define wireless2_height 14
static char wireless2_bits[] = {
  0x00, 0x00, 0x00, 0x00, 0x00, 0x00, 0x00, 0x00, 0x00, 0x00, 0x00, 0x00, 
  0x00, 0x00, 0x00, 0x00, 0x00, 0x00, 0x00, 0x00, 0x00, 0x00, 0x00, 0x00, 
  0x00, 0x00, 0x00, 0x60, 0x00, 0x00, 0xF0, 0x00, 0x00, 0x70, 0x00, 0x00, 
  0xE3, 0x00, 0x00, 0xF7, 0x00, 0x00, };
