#define wireless5_width 21
#define wireless5_height 14
static char wireless5_bits[] = {
  0x00, 0x00, 0x1C, 0x00, 0x00, 0x1C, 0x00, 0x00, 0x1C, 0x00, 0xC0, 0x1C, 
  0x00, 0xE0, 0x1C, 0x00, 0xC0, 0x1D, 0x00, 0xCC, 0x1D, 0x00, 0xEE, 0x1C, 
  0x00, 0xCE, 0x1C, 0x60, 0xEE, 0x1D, 0x60, 0xCE, 0x1D, 0xF0, 0xEE, 0x1C, 
  0x62, 0xCE, 0x1C, 0xF7, 0xEE, 0x1D, };
