#define www_width 23
#define www_height 14
static char www_bits[] = {
  0x00, 0x00, 0x00, 0x00, 0x40, 0x08, 0x98, 0x61, 0x0C, 0x30, 0x27, 0x02, 
  0x20, 0x36, 0x06, 0x30, 0x36, 0x07, 0x60, 0x1C, 0x01, 0xC0, 0x8C, 0x01, 
  0xC0, 0x98, 0x01, 0x00, 0x77, 0x00, 0x80, 0xF7, 0x00, 0x00, 0x63, 0x00, 
  0x00, 0x00, 0x00, 0x00, 0x00, 0x00, };
